<svg height='100px' width='100px'  fill="#0000ee" xmlns="http://www.w3.org/2000/svg" xmlns:xlink="http://www.w3.org/1999/xlink" version="1.1" x="0px" y="0px" viewBox="0 0 100 100" style="enable-background:new 0 0 100 100;" xml:space="preserve"><path d="M57.3,21.7H34.4c-2.8,0-5,2.3-5,5v46.5c0,2.8,2.3,5,5,5h31.2c2.8,0,5-2.3,5-5V35.3L57.3,21.7z M58.1,26.9l7.4,7.5h-7.4V26.9  z M67.6,73.2c0,1.1-0.9,2-2,2H34.4c-1.1,0-2-0.9-2-2V26.8c0-1.1,0.9-2,2-2h20.7v12.7h12.5V73.2z M38.8,68.2h22.4v-3H38.8V68.2z   M38.8,57.7h22.4v-3H38.8V57.7z M38.8,47.1h22.4v-3H38.8V47.1z"></path></svg>