<svg height='100px' width='100px'  fill="#0000ee" xmlns="http://www.w3.org/2000/svg" xmlns:xlink="http://www.w3.org/1999/xlink" xml:space="preserve" style="shape-rendering:geometricPrecision;text-rendering:geometricPrecision;image-rendering:optimizeQuality;" viewBox="0 0 8.66666 8.66666" x="0px" y="0px" fill-rule="evenodd" clip-rule="evenodd"><defs><style type="text/css">
   
    .fil1 {fill:none}
    .fil0 {fill:#0000ee;fill-rule:nonzero}
   
  </style></defs><g><path class="fil0" d="M2.96347 5.13219c0,-0.103535 0.0153661,-0.190291 0.0463307,-0.260496 0.0231654,-0.0515354 0.0546063,-0.0981024 0.0945551,-0.139232 0.0399488,-0.0408976 0.0836811,-0.0713898 0.131193,-0.091248 0.0633504,-0.0269488 0.136157,-0.040185 0.218894,-0.040185 0.149634,0 0.269244,0.0463307 0.359071,0.139232 0.0898268,0.0926654 0.13474,0.221732 0.13474,0.386965 0,0.164055 -0.0446772,0.292177 -0.133795,0.384839 -0.0891181,0.0924291 -0.208256,0.13876 -0.357181,0.13876 -0.151051,0 -0.27113,-0.0460945 -0.360248,-0.138051 -0.0891181,-0.092189 -0.133559,-0.21913 -0.133559,-0.380583zm0.211094 -0.00685433c0,0.114886 0.0267126,0.20211 0.0796575,0.261445 0.053189,0.0593307 0.120559,0.0888819 0.202346,0.0888819 0.0815551,0 0.148689,-0.029315 0.201165,-0.0884094 0.0522441,-0.0588622 0.0784803,-0.147031 0.0784803,-0.264756 0,-0.116299 -0.0255276,-0.203055 -0.0763504,-0.260496 -0.0510591,-0.0572047 -0.118906,-0.085811 -0.203295,-0.085811 -0.084626,0 -0.152705,0.0290787 -0.204472,0.0869921 -0.0515276,0.0579134 -0.0775315,0.145142 -0.0775315,0.262154zm0.934201 -0.507051l0.405874 0c0.080374,0 0.140413,0.00331102 0.17989,0.0101654 0.0394803,0.00661811 0.0747008,0.0205669 0.105902,0.0418386 0.0312047,0.0212756 0.0569724,0.0494055 0.0777717,0.0848661 0.0208031,0.0352205 0.0312047,0.0749331 0.0312047,0.118665 0,0.0475118 -0.0127638,0.0912441 -0.0382953,0.130957 -0.0257677,0.0397165 -0.0605157,0.0695 -0.104248,0.0893543 0.0616969,0.0179685 0.109449,0.0486969 0.142543,0.0919567 0.0333307,0.0434961 0.049878,0.0945551 0.049878,0.153177 0,0.0460984 -0.0106378,0.0910118 -0.0321496,0.13474 -0.0215118,0.0434961 -0.0508228,0.0784803 -0.087937,0.104484 -0.0371102,0.0260039 -0.0829685,0.0420787 -0.137575,0.0482244 -0.0340394,0.00354331 -0.116539,0.00590945 -0.247264,0.00685433l-0.345594 0 0 -1.01528zm0.205181 0.169016l0 0.234732 0.134268 0c0.0799016,0 0.129543,-0.0011811 0.148925,-0.00354331 0.0349843,-0.00401969 0.0626417,-0.0160748 0.0827362,-0.0361693 0.0200906,-0.0200906 0.0300197,-0.0465669 0.0300197,-0.0794252 0,-0.031437 -0.00850787,-0.0569685 -0.0257638,-0.0765906 -0.0174961,-0.0196181 -0.0432598,-0.031437 -0.0772992,-0.0354567 -0.0203307,-0.0023622 -0.0787165,-0.00354724 -0.175165,-0.00354724l-0.11772 0zm0 0.403752l0 0.27137 0.189583 0c0.0739921,0 0.120795,-0.00188976 0.14065,-0.00614567 0.0304961,-0.00543701 0.055315,-0.0191457 0.0744646,-0.0404213 0.0191457,-0.0215118 0.0288386,-0.0503504 0.0288386,-0.0862795 0,-0.0304961 -0.00756299,-0.0562638 -0.0222205,-0.0775354 -0.0148937,-0.0212756 -0.0361654,-0.036878 -0.0640591,-0.0465709 -0.0278937,-0.00968898 -0.0886457,-0.0144173 -0.181783,-0.0144173l-0.165472 0zm1.18477 -0.572768l0.204472 0 0 0.642736c0,0.0839173 -0.00756693,0.148689 -0.0222205,0.193839 -0.0198583,0.0590984 -0.0557874,0.10661 -0.108028,0.142303 -0.0522402,0.0359331 -0.121028,0.0536614 -0.206366,0.0536614 -0.100228,0 -0.177287,-0.0278937 -0.231421,-0.0841535 -0.0538976,-0.0560236 -0.0813189,-0.138287 -0.0815551,-0.246787l0.19313 -0.0222205c0.0023622,0.0581496 0.010874,0.0992835 0.0255315,0.123394 0.0222165,0.0364016 0.0560236,0.0546063 0.101173,0.0546063 0.045622,0 0.0780079,-0.0130039 0.0969173,-0.0392402 0.0189094,-0.0260039 0.0283661,-0.0801378 0.0283661,-0.162398l0 -0.65574z"></path></g><path class="fil0" d="M2.40683 4.06374c0,0.0441811 0.0358189,0.08 0.08,0.08 0.0441811,0 0.08,-0.0358189 0.08,-0.08l0 -2.25041 2.80151 0 0.731484 0.731484 0 1.51893c0,0.0441811 0.0358189,0.08 0.08,0.08 0.0441811,0 0.08,-0.0358189 0.08,-0.08l0 -1.55205 -3.93701e-006 0c0,-0.0204724 -0.00780709,-0.0409488 -0.0234291,-0.0565669l-3.93701e-006 3.93701e-006 -0.77802 -0.77802c-0.0145039,-0.0146772 -0.0346378,-0.0237756 -0.0569016,-0.0237756l-2.91464 0c-0.0441811,0 -0.08,0.0358189 -0.08,0.08l0 2.33041zm3.853 2.12438c0,-0.0441811 -0.0358189,-0.08 -0.08,-0.08 -0.0441811,0 -0.08,0.0358189 -0.08,0.08l0 0.665213 -3.533 0 0 -0.665213c0,-0.0441811 -0.0358189,-0.08 -0.08,-0.08 -0.0441811,0 -0.08,0.0358189 -0.08,0.08l0 0.745213c0,0.0441811 0.0358189,0.08 0.08,0.08l3.693 0c0.0441811,0 0.08,-0.0358189 0.08,-0.08l0 -0.745213z"></path><path class="fil0" d="M5.48147 1.73333c0,-0.0441811 -0.0358189,-0.08 -0.08,-0.08 -0.0441811,0 -0.08,0.0358189 -0.08,0.08l0 0.389177c0,0.129106 0.0527638,0.246421 0.137756,0.331417 0.0849961,0.0849921 0.202311,0.137756 0.331417,0.137756l0.389177 0c0.0441811,0 0.08,-0.0358189 0.08,-0.08 0,-0.0441811 -0.0358189,-0.08 -0.08,-0.08l-0.389177 0c-0.084937,0 -0.162217,-0.034811 -0.218291,-0.0908819 -0.0560709,-0.0560748 -0.0908819,-0.133354 -0.0908819,-0.218291l0 -0.389177z"></path><path class="fil0" d="M2.04518 6.10811l4.5763 0 0 -1.96438 -4.5763 0 0 1.96438zm4.6563 0.16l-4.7363 0c-0.0441811,0 -0.08,-0.0358189 -0.08,-0.08l0 -2.12438c0,-0.0441811 0.0358189,-0.08 0.08,-0.08l4.7363 0c0.0441811,0 0.08,0.0358189 0.08,0.08l0 2.12438c0,0.0441811 -0.0358189,0.08 -0.08,0.08z"></path><path class="fil0" d="M3.11986 2.5703c-0.0441811,0 -0.08,0.0358189 -0.08,0.08 0,0.0441811 0.0358189,0.08 0.08,0.08l1.72368 0c0.0441811,0 0.08,-0.0358189 0.08,-0.08 0,-0.0441811 -0.0358189,-0.08 -0.08,-0.08l-1.72368 0z"></path><path class="fil0" d="M3.11986 3.01156c-0.0441811,0 -0.08,0.0358189 -0.08,0.08 0,0.0441811 0.0358189,0.08 0.08,0.08l2.42694 0c0.0441811,0 0.08,-0.0358189 0.08,-0.08 0,-0.0441811 -0.0358189,-0.08 -0.08,-0.08l-2.42694 0z"></path><path class="fil0" d="M3.11986 3.45282c-0.0441811,0 -0.08,0.0358189 -0.08,0.08 0,0.0441811 0.0358189,0.08 0.08,0.08l2.42694 0c0.0441811,0 0.08,-0.0358189 0.08,-0.08 0,-0.0441811 -0.0358189,-0.08 -0.08,-0.08l-2.42694 0z"></path><rect class="fil1" width="8.66666" height="8.66666"></rect></svg>