<svg height='100px' width='100px'  fill="#0000ee" xmlns="http://www.w3.org/2000/svg" xmlns:xlink="http://www.w3.org/1999/xlink" xml:space="preserve" style="shape-rendering:geometricPrecision;text-rendering:geometricPrecision;image-rendering:optimizeQuality;" viewBox="0 0 8.66666 8.66666" x="0px" y="0px" fill-rule="evenodd" clip-rule="evenodd"><defs><style type="text/css">
   
    .fil1 {fill:none}
    .fil0 {fill:#0000ee;fill-rule:nonzero}
   
  </style></defs><g><path class="fil0" d="M3.27987 5.63357l0 -0.843429 -0.301154 0 0 -0.171854 0.806787 0 0 0.171854 -0.300449 0 0 0.843429 -0.205185 0zm1.44834 0l-0.22315 0 -0.0886417 -0.230713 -0.405878 0 -0.0836811 0.230713 -0.217476 0 0.395476 -1.01528 0.216768 0 0.406583 1.01528zm-0.377508 -0.401622l-0.139941 -0.376799 -0.137106 0.376799 0.277047 0zm0.48672 -0.613661l0.405874 0c0.080374,0 0.140413,0.00331102 0.17989,0.0101654 0.0394803,0.00661811 0.0747008,0.0205669 0.105902,0.0418386 0.0312047,0.0212756 0.0569724,0.0494055 0.0777717,0.0848661 0.0208031,0.0352205 0.0312008,0.0749331 0.0312008,0.118665 0,0.0475118 -0.0127598,0.0912441 -0.0382913,0.130957 -0.0257677,0.0397165 -0.0605157,0.0695 -0.104248,0.0893543 0.0616969,0.0179685 0.109449,0.0486969 0.142539,0.0919567 0.0333307,0.0434961 0.049878,0.0945551 0.049878,0.153177 0,0.0460984 -0.0106378,0.0910118 -0.0321496,0.13474 -0.0215118,0.0434961 -0.0508189,0.0784803 -0.0879331,0.104484 -0.0371102,0.0260039 -0.0829685,0.0420787 -0.137575,0.0482244 -0.0340394,0.00354331 -0.116539,0.00590945 -0.247264,0.00685433l-0.345594 0 0 -1.01528zm0.205181 0.169016l0 0.234732 0.134268 0c0.0799016,0 0.129543,-0.0011811 0.148925,-0.00354331 0.0349843,-0.00401969 0.0626417,-0.0160748 0.0827362,-0.0361693 0.0200906,-0.0200906 0.0300197,-0.0465669 0.0300197,-0.0794252 0,-0.031437 -0.00850787,-0.0569685 -0.0257638,-0.0765906 -0.0174961,-0.0196181 -0.0432598,-0.031437 -0.0772992,-0.0354567 -0.0203307,-0.0023622 -0.0787165,-0.00354724 -0.175165,-0.00354724l-0.11772 0zm0 0.403752l0 0.27137 0.189583 0c0.0739921,0 0.120795,-0.00188976 0.14065,-0.00614567 0.0304961,-0.00543701 0.055315,-0.0191457 0.0744646,-0.0404213 0.0191457,-0.0215118 0.0288386,-0.0503504 0.0288386,-0.0862795 0,-0.0304961 -0.00756299,-0.0562638 -0.0222205,-0.0775354 -0.0148937,-0.0212756 -0.0361654,-0.036878 -0.0640591,-0.0465709 -0.0278937,-0.00968898 -0.0886457,-0.0144173 -0.181783,-0.0144173l-0.165472 0z"></path></g><path class="fil0" d="M2.40683 4.06374c0,0.0441811 0.0358189,0.08 0.08,0.08 0.0441811,0 0.08,-0.0358189 0.08,-0.08l0 -2.25041 2.80151 0 0.731484 0.731484 0 1.51893c0,0.0441811 0.0358189,0.08 0.08,0.08 0.0441811,0 0.08,-0.0358189 0.08,-0.08l0 -1.55205 -3.93701e-006 0c0,-0.0204724 -0.00780709,-0.0409488 -0.0234291,-0.0565669l-3.93701e-006 3.93701e-006 -0.77802 -0.77802c-0.0145039,-0.0146772 -0.0346378,-0.0237756 -0.0569016,-0.0237756l-2.91464 0c-0.0441811,0 -0.08,0.0358189 -0.08,0.08l0 2.33041zm3.853 2.12438c0,-0.0441811 -0.0358189,-0.08 -0.08,-0.08 -0.0441811,0 -0.08,0.0358189 -0.08,0.08l0 0.665213 -3.533 0 0 -0.665213c0,-0.0441811 -0.0358189,-0.08 -0.08,-0.08 -0.0441811,0 -0.08,0.0358189 -0.08,0.08l0 0.745213c0,0.0441811 0.0358189,0.08 0.08,0.08l3.693 0c0.0441811,0 0.08,-0.0358189 0.08,-0.08l0 -0.745213z"></path><path class="fil0" d="M5.48147 1.73333c0,-0.0441811 -0.0358189,-0.08 -0.08,-0.08 -0.0441811,0 -0.08,0.0358189 -0.08,0.08l0 0.389177c0,0.129106 0.0527638,0.246421 0.137756,0.331417 0.0849961,0.0849921 0.202311,0.137756 0.331417,0.137756l0.389177 0c0.0441811,0 0.08,-0.0358189 0.08,-0.08 0,-0.0441811 -0.0358189,-0.08 -0.08,-0.08l-0.389177 0c-0.084937,0 -0.162217,-0.034811 -0.218291,-0.0908819 -0.0560709,-0.0560748 -0.0908819,-0.133354 -0.0908819,-0.218291l0 -0.389177z"></path><path class="fil0" d="M2.04518 6.10811l4.5763 0 0 -1.96438 -4.5763 0 0 1.96438zm4.6563 0.16l-4.7363 0c-0.0441811,0 -0.08,-0.0358189 -0.08,-0.08l0 -2.12438c0,-0.0441811 0.0358189,-0.08 0.08,-0.08l4.7363 0c0.0441811,0 0.08,0.0358189 0.08,0.08l0 2.12438c0,0.0441811 -0.0358189,0.08 -0.08,0.08z"></path><path class="fil0" d="M3.11986 2.5703c-0.0441811,0 -0.08,0.0358189 -0.08,0.08 0,0.0441811 0.0358189,0.08 0.08,0.08l1.72368 0c0.0441811,0 0.08,-0.0358189 0.08,-0.08 0,-0.0441811 -0.0358189,-0.08 -0.08,-0.08l-1.72368 0z"></path><path class="fil0" d="M3.11986 3.01156c-0.0441811,0 -0.08,0.0358189 -0.08,0.08 0,0.0441811 0.0358189,0.08 0.08,0.08l2.42694 0c0.0441811,0 0.08,-0.0358189 0.08,-0.08 0,-0.0441811 -0.0358189,-0.08 -0.08,-0.08l-2.42694 0z"></path><path class="fil0" d="M3.11986 3.45282c-0.0441811,0 -0.08,0.0358189 -0.08,0.08 0,0.0441811 0.0358189,0.08 0.08,0.08l2.42694 0c0.0441811,0 0.08,-0.0358189 0.08,-0.08 0,-0.0441811 -0.0358189,-0.08 -0.08,-0.08l-2.42694 0z"></path><rect class="fil1" width="8.66666" height="8.66666"></rect></svg>