<svg height='100px' width='100px'  fill="#0000ee" xmlns="http://www.w3.org/2000/svg" xmlns:xlink="http://www.w3.org/1999/xlink" xml:space="preserve" style="shape-rendering:geometricPrecision;text-rendering:geometricPrecision;image-rendering:optimizeQuality;" viewBox="0 0 8.66666 8.66666" x="0px" y="0px" fill-rule="evenodd" clip-rule="evenodd"><defs><style type="text/css">
   
    .fil1 {fill:none}
    .fil0 {fill:#0000ee;fill-rule:nonzero}
   
  </style></defs><g><path class="fil0" d="M2.98498 5.63357l-0.242295 -1.01528 0.209673 0 0.153177 0.697343 0.185563 -0.697343 0.243717 0 0.178 0.709161 0.15578 -0.709161 0.206362 0 -0.246551 1.01528 -0.217476 0 -0.20211 -0.759039 -0.201638 0.759039 -0.222201 0zm1.19517 0l0 -1.01528 0.431642 0c0.1085,0 0.187217,0.00922047 0.236386,0.0274213 0.0491693,0.0182008 0.0886457,0.0505866 0.118193,0.0971535 0.0295512,0.0468071 0.0442047,0.0999921 0.0442047,0.160035 0,0.0761181 -0.0224567,0.139232 -0.0671339,0.188874 -0.0446772,0.0494055 -0.111811,0.0808425 -0.200929,0.0936102 0.0444409,0.026 0.0810827,0.0543661 0.109921,0.0853346 0.0288386,0.0309685 0.0676063,0.0858071 0.116539,0.164764l0.124102 0.198091 -0.245134 0 -0.148213 -0.221024c-0.0527165,-0.0789528 -0.0886457,-0.128594 -0.108031,-0.149157 -0.0193819,-0.0205669 -0.0399488,-0.0345118 -0.0616969,-0.042315 -0.021748,-0.00756299 -0.0560236,-0.0113465 -0.103299,-0.0113465l-0.0413701 0 0 0.423843 -0.205181 0zm0.205181 -0.586004l0.151524 0c0.0983386,0 0.159799,-0.00401969 0.184382,-0.0122913 0.0243504,-0.00827559 0.0434961,-0.0226929 0.0574449,-0.0430236 0.0137087,-0.0203268 0.0207992,-0.045622 0.0207992,-0.0761142 0,-0.0342795 -0.00921654,-0.0617008 -0.0274173,-0.0827362 -0.0182047,-0.0210394 -0.0439685,-0.0342756 -0.0772992,-0.0399488 -0.0165472,-0.00212992 -0.0664252,-0.00331102 -0.149634,-0.00331102l-0.159799 0 0 0.257425zm0.824043 0.586004l0 -1.00701 0.204949 0 0 0.835862 0.509646 0 0 0.171146 -0.714594 0z"></path></g><path class="fil0" d="M2.40683 4.06374c0,0.0441811 0.0358189,0.08 0.08,0.08 0.0441811,0 0.08,-0.0358189 0.08,-0.08l0 -2.25041 2.80151 0 0.731484 0.731484 0 1.51893c0,0.0441811 0.0358189,0.08 0.08,0.08 0.0441811,0 0.08,-0.0358189 0.08,-0.08l0 -1.55205 -3.93701e-006 0c0,-0.0204724 -0.00780709,-0.0409488 -0.0234291,-0.0565669l-3.93701e-006 3.93701e-006 -0.77802 -0.77802c-0.0145039,-0.0146772 -0.0346378,-0.0237756 -0.0569016,-0.0237756l-2.91464 0c-0.0441811,0 -0.08,0.0358189 -0.08,0.08l0 2.33041zm3.853 2.12438c0,-0.0441811 -0.0358189,-0.08 -0.08,-0.08 -0.0441811,0 -0.08,0.0358189 -0.08,0.08l0 0.665213 -3.533 0 0 -0.665213c0,-0.0441811 -0.0358189,-0.08 -0.08,-0.08 -0.0441811,0 -0.08,0.0358189 -0.08,0.08l0 0.745213c0,0.0441811 0.0358189,0.08 0.08,0.08l3.693 0c0.0441811,0 0.08,-0.0358189 0.08,-0.08l0 -0.745213z"></path><path class="fil0" d="M5.48147 1.73333c0,-0.0441811 -0.0358189,-0.08 -0.08,-0.08 -0.0441811,0 -0.08,0.0358189 -0.08,0.08l0 0.389177c0,0.129106 0.0527638,0.246421 0.137756,0.331417 0.0849961,0.0849921 0.202311,0.137756 0.331417,0.137756l0.389177 0c0.0441811,0 0.08,-0.0358189 0.08,-0.08 0,-0.0441811 -0.0358189,-0.08 -0.08,-0.08l-0.389177 0c-0.084937,0 -0.162217,-0.034811 -0.218291,-0.0908819 -0.0560709,-0.0560748 -0.0908819,-0.133354 -0.0908819,-0.218291l0 -0.389177z"></path><path class="fil0" d="M2.04518 6.10811l4.5763 0 0 -1.96438 -4.5763 0 0 1.96438zm4.6563 0.16l-4.7363 0c-0.0441811,0 -0.08,-0.0358189 -0.08,-0.08l0 -2.12438c0,-0.0441811 0.0358189,-0.08 0.08,-0.08l4.7363 0c0.0441811,0 0.08,0.0358189 0.08,0.08l0 2.12438c0,0.0441811 -0.0358189,0.08 -0.08,0.08z"></path><path class="fil0" d="M3.11986 2.5703c-0.0441811,0 -0.08,0.0358189 -0.08,0.08 0,0.0441811 0.0358189,0.08 0.08,0.08l1.72368 0c0.0441811,0 0.08,-0.0358189 0.08,-0.08 0,-0.0441811 -0.0358189,-0.08 -0.08,-0.08l-1.72368 0z"></path><path class="fil0" d="M3.11986 3.01156c-0.0441811,0 -0.08,0.0358189 -0.08,0.08 0,0.0441811 0.0358189,0.08 0.08,0.08l2.42694 0c0.0441811,0 0.08,-0.0358189 0.08,-0.08 0,-0.0441811 -0.0358189,-0.08 -0.08,-0.08l-2.42694 0z"></path><path class="fil0" d="M3.11986 3.45282c-0.0441811,0 -0.08,0.0358189 -0.08,0.08 0,0.0441811 0.0358189,0.08 0.08,0.08l2.42694 0c0.0441811,0 0.08,-0.0358189 0.08,-0.08 0,-0.0441811 -0.0358189,-0.08 -0.08,-0.08l-2.42694 0z"></path><rect class="fil1" width="8.66666" height="8.66666"></rect></svg>