<svg xmlns="http://www.w3.org/2000/svg" xmlns:xlink="http://www.w3.org/1999/xlink" viewBox="0 0 48 48" version="1.1"
    x="0px" y="0px">
    <g stroke="none" stroke-width="1" fill="#192028">
        <path
            d="M16.9705627,47.9705075 L12.7279221,43.7278668 C10.3847763,46.0710126 6.58578644,46.0710126 4.24264069,43.7278668 C1.89949494,41.3847211 1.89949494,37.5857312 4.24264069,35.2425855 L0,30.9999448 C2.17323453,28.8267103 4.97264946,27.6612979 7.81747132,27.5037076 L7.07456558,26.7608019 C6.29158523,25.9778215 6.29172329,24.7082215 7.06514016,23.9348046 L9.19238816,21.8075566 L0.71177317,13.3269416 C-0.071852589,12.5433159 -0.0759271472,11.2768821 0.703634387,10.4973205 L10.6100741,0.590880799 C11.3892049,-0.188250034 12.6590197,-0.18165593 13.4396952,0.599019582 L22.6909969,9.8503213 C26.9533899,8.2701759 31.9313176,9.19114702 35.3553391,12.6151685 C38.7801127,16.0399421 39.7055069,21.0163175 38.1217906,25.2811142 L47.371488,34.5308123 C48.1551137,35.3144381 48.1591883,36.5808719 47.3796267,37.3604334 L37.473187,47.2668731 C36.6940562,48.046004 35.4242414,48.0394099 34.6435659,47.2587344 L26.1629509,38.7781194 L24.0357029,40.9053674 C23.2579281,41.6831422 21.9931237,41.67936 21.2097057,40.895942 L20.4667999,40.1530362 C20.3092097,42.9978581 19.1437973,45.797273 16.9705627,47.9705075 Z M16.2137764,41.5568669 C16.9265172,38.8879325 16.2359703,35.9222066 14.1421356,33.8283719 C12.0483009,31.7345372 9.08257499,31.0439903 6.41364063,31.7567312 L16.2137764,41.5568669 L16.2137764,41.5568669 Z M9.89949494,40.8994397 L7.07106781,38.0710126 C6.29001923,38.8520612 6.29001923,40.1183911 7.07106781,40.8994397 C7.8521164,41.6804883 9.11844635,41.6804883 9.89949494,40.8994397 L9.89949494,40.8994397 Z M19.1213323,11.9375109 L12.0208153,4.83699388 L4.94974747,11.9080617 L12.0208153,18.9791295 L18.3793268,12.620618 C18.6193009,12.3806439 18.8668962,12.1529413 19.1213323,11.9375109 L19.1213323,11.9375109 Z M36.0330913,28.8492699 C35.8176331,29.1036087 35.5899003,29.35117 35.3498895,29.5911807 L28.991378,35.9496923 L36.0624458,43.0207601 L43.1335137,35.9496923 L36.0330913,28.8492699 L36.0330913,28.8492699 Z M22.627417,36.656799 L32.5214624,26.7627536 C35.6544611,23.629755 35.6542459,18.5709296 32.5269119,15.4435956 C29.4025029,12.3191865 24.3357735,12.3210255 21.2077539,15.4490451 L11.3137085,25.3430905 L22.627417,36.656799 Z"
            transform="translate(23.980881, 23.990259) rotate(-360.000000) translate(-23.980881, -23.990259) " />
    </g>
</svg>