<svg xmlns="http://www.w3.org/2000/svg" xmlns:xlink="http://www.w3.org/1999/xlink" version="1.1" x="0px" y="0px"
    viewBox="0 0 192 192" fill="#192028">
    <g>
        <path
            d="M190.962,100.049c-1.42-2.508-4.08-4.059-6.962-4.059h-17.87l16.73-27.884c3.143-5.241-0.765-12.116-6.86-12.116h-16.454   l30.964-43.35c2.209-3.094,1.894-7.441-0.735-10.185c-2.553-2.664-6.726-3.222-9.891-1.326l-63.438,38.063l3.315-13.263   c1.553-6.208-4.789-11.746-10.731-9.368c-1.665,0.666-41.055,16.496-65.467,32.771C24.861,61.802,0,82.69,0,119.99   c0,39.701,32.299,72,72,72c67.751,0,116.805-80.459,118.86-83.884C192.343,105.635,192.382,102.557,190.962,100.049z M72,167.99   c-26.468,0-48-21.532-48-48s21.532-48,48-48s48,21.532,48,48S98.468,167.99,72,167.99z" />
        <circle cx="56" cy="119.99" r="8" />
        <circle cx="56" cy="143.99" r="8" />
        <circle cx="80" cy="127.99" r="8" />
    </g>
</svg>